:version 1.10
:name ASF
:units
  mass 1
  length 1
  angle deg
:documentation
  ASF file generated by Kaydara
:root
  axis xyz
  order  tx ty tz rx ry rz
  position 0 0 0
  orientation 0 0 0
:bonedata
  begin
    id 1
    name RightUpLegDummy
    direction -0.718183 -0.695806 0.00816078
    length 4.904
    axis 0 0 0 xyz
  end
  begin
    id 2
    name RightUpLeg
    direction 3.53989e-006 -0.995788 0.0916897
    length 17.4976
    axis -3.49089 -0.000906621 0.000287158 xyz
    dof rx ry rz
  end
  begin
    id 3
    name RightLeg
    direction 0.00371093 -0.995096 -0.0988418
    length 16.5821
    axis 3.68512 0.0193738 -0.131023 xyz
    dof rx ry rz
  end
  begin
    id 4
    name RightFoot
    direction 0.000791514 -0.46099 0.887405
    length 3.77069
    axis 4.84075e-005 -0.120479 -0.188788 xyz
    dof rx ry rz
  end
  begin
    id 5
    name RightToes
    direction 0.00124746 -0.014064 0.9999
    length 3.85082
    axis 0.00048216 0.542163 -0.142577 xyz
    dof rx ry rz
  end
  begin
    id 6
    name SpineDummy
    direction 8.36599e-015 1 5.97571e-016
    length 4.6813
    axis 0 0 0 xyz
  end
  begin
    id 7
    name Spine
    direction -4.63632e-008 0.999988 0.00495137
    length 10.1015
    axis -0.00138897 0.000121419 3.25764e-006 xyz
    dof rx ry rz
  end
  begin
    id 8
    name Spine1
    direction 0 0 0
    length 0
    axis -0.00138896 0.000121452 2.39764e-006 xyz
    dof rx ry rz
  end
  begin
    id 9
    name HEadDummy
    direction -3.91456e-008 0.999999 0.00127422
    length 3.43865
    axis -0.00138896 0.000121452 2.39764e-006 xyz
  end
  begin
    id 10
    name HEad
    direction -0.0222688 0.980941 0.193023
    length 5.12695
    axis -0.00138895 0.000121452 2.39764e-006 xyz
    dof rx ry rz
  end
  begin
    id 11
    name LeftShoulder1Dummy
    direction 0.998891 -0.0402508 -0.0244456
    length 3.5433
    axis -0.00138896 0.000121452 2.39764e-006 xyz
  end
  begin
    id 12
    name LeftShoulder1
    direction 0.99951 -0.000327743 0.0313091
    length 4.05031
    axis -0.00138896 0.000121452 2.39764e-006 xyz
    dof rx ry rz
  end
  begin
    id 13
    name LeftArm
    direction 0.998561 -0.00100054 -0.0536182
    length 10.3537
    axis -23.1894 0.134784 0.96751 xyz
    dof rx ry rz
  end
  begin
    id 14
    name LeftForeArm
    direction 0.998903 0.00866434 0.046012
    length 8.70632
    axis -9.91835 -0.06569 -0.177792 xyz
    dof rx ry rz
  end
  begin
    id 15
    name LeftHand
    direction 0.992938 -0.0411636 0.11126
    length 5.32135
    axis -0.00960227 -0.00340091 0.185174 xyz
    dof rx ry rz
  end
  begin
    id 16
    name RightShoulderDummy
    direction -0.998891 -0.0402509 -0.0244414
    length 3.5433
    axis -0.00138896 0.000121452 2.39764e-006 xyz
  end
  begin
    id 17
    name RightShoulder
    direction -0.99951 -0.000327827 0.0313133
    length 4.05031
    axis 0.215806 0.000203644 -0.00680151 xyz
    dof rx ry rz
  end
  begin
    id 18
    name RightArm
    direction -0.998573 -0.000999583 -0.053403
    length 10.3947
    axis -23.2009 -0.134239 -0.9641 xyz
    dof rx ry rz
  end
  begin
    id 19
    name RightForeArm
    direction -0.998898 0.00868026 0.0461306
    length 8.68355
    axis -9.92322 0.0658061 0.178869 xyz
    dof rx ry rz
  end
  begin
    id 20
    name RightHand
    direction -0.992843 -0.0414603 0.112003
    length 5.28593
    axis -0.00960634 0.00330671 -0.185226 xyz
    dof rx ry rz
  end
  begin
    id 21
    name LeftUpLegDummy
    direction 0.718183 -0.695806 0.00816078
    length 4.904
    axis 0 0 0 xyz
  end
  begin
    id 22
    name LeftUpLeg
    direction -6.8115e-006 -0.995793 0.0916336
    length 17.4976
    axis -3.48766 0.00143441 -0.000523914 xyz
    dof rx ry rz
  end
  begin
    id 23
    name LeftLeg
    direction -0.00601357 -0.995091 -0.0987824
    length 16.5821
    axis 3.68177 -0.00654038 -0.00028478 xyz
    dof rx ry rz
  end
  begin
    id 24
    name LeftFoot
    direction -0.00417578 -0.460984 0.887399
    length 3.77069
    axis 1.87232e-006 4.66002e-005 -8.1837e-006 xyz
    dof rx ry rz
  end
  begin
    id 25
    name LeftToes
    direction 0.00818058 -0.00485161 0.999955
    length 3.85048
    axis 1.06246e-005 4.65855e-005 -8.18502e-006 xyz
    dof rx ry rz
  end
:hierarchy
  begin
    root RightUpLegDummy SpineDummy LeftUpLegDummy
    RightUpLegDummy RightUpLeg
    RightUpLeg RightLeg
    RightLeg RightFoot
    RightFoot RightToes
    SpineDummy Spine
    Spine Spine1
    Spine1 HEadDummy LeftShoulder1Dummy RightShoulderDummy
    HEadDummy HEad
    LeftShoulder1Dummy LeftShoulder1
    LeftShoulder1 LeftArm
    LeftArm LeftForeArm
    LeftForeArm LeftHand
    RightShoulderDummy RightShoulder
    RightShoulder RightArm
    RightArm RightForeArm
    RightForeArm RightHand
    LeftUpLegDummy LeftUpLeg
    LeftUpLeg LeftLeg
    LeftLeg LeftFoot
    LeftFoot LeftToes
  end

:SAMPLES-PER-SECOND 30
:FULLY-SPECIFIED
:DEGREES
19
root  -2.77507 40.947 1.21551 -173.082 -86.5785 174.026
RightUpLeg  2.55001 -1.15261 -2.35054
RightLeg  -1.52263 -15.9971 -0.33906
RightFoot  -0.568707 -0.358694 3.75942
RightToes  -3.13006e-008 1.75238e-005 3.56266e-009
Spine  -1.34295 -0.137952 8.35516
Spine1  2.54088 2.1087 -13.1845
HEad  -16.1509 -37.1664 14.9181
LeftShoulder1  2.22883 -4.11651 -22.9742
LeftArm  -46.5581 25.4643 -58.6182
LeftForeArm  46.9602 -41.1852 -6.80514
LeftHand  -0.451727 -4.95077 5.36739
RightShoulder  0.133135 -2.60476 7.49825
RightArm  -76.1785 35.1376 -4.62681
RightForeArm  -18.7708 16.8893 -1.20914
RightHand  -0.685013 4.91596 -8.00242
LeftUpLeg  3.20764 0.381133 0.801452
LeftLeg  -3.0633 16.4216 -1.29564
LeftFoot  -0.539236 0.192527 -1.94122
LeftToes  4.76866e-008 1.46233e-008 1.30548e-009
20
root  -2.79805 40.9447 1.15441 -169.552 -87.7149 170.546
RightUpLeg  2.68477 -1.1803 -2.24514
RightLeg  -1.5176 -17.1844 -0.259827
RightFoot  -0.720506 -0.350681 3.71708
RightToes  -3.13006e-008 1.75238e-005 3.56266e-009
Spine  -1.55319 -0.754797 6.6348
Spine1  2.78444 1.20161 -11.3934
HEad  -15.4177 -35.8141 13.0223
LeftShoulder1  2.27902 -4.19856 -23.3349
LeftArm  -47.1788 26.376 -58.7413
LeftForeArm  45.123 -41.3628 -6.96212
LeftHand  -0.502712 -4.81229 6.00317
RightShoulder  0.0868048 -2.90799 7.36281
RightArm  -75.2435 33.5973 -5.17007
RightForeArm  -16.7275 17.5662 0.0597897
RightHand  -0.647303 4.79972 -7.61677
LeftUpLeg  3.0577 0.384108 0.916983
LeftLeg  -3.04763 15.2846 -1.2149
LeftFoot  -0.423391 0.199708 -2.0465
LeftToes  4.76866e-008 1.46233e-008 1.30548e-009
21
root  -2.8301 40.9434 1.08896 -165.304 -88.2516 166.124
RightUpLeg  2.90474 -1.28018 -2.21535
RightLeg  -1.26712 -17.5817 -0.268895
RightFoot  -0.91504 -0.329349 3.53942
RightToes  -3.13006e-008 1.75238e-005 3.56266e-009
Spine  -1.89654 -1.25364 4.56355
Spine1  3.65674 0.369666 -9.03061
HEad  -14.9044 -33.6486 11.3503
LeftShoulder1  2.25906 -4.10327 -23.4457
LeftArm  -48.0534 27.0625 -59.278
LeftForeArm  44.377 -41.4926 -7.04435
LeftHand  -0.40033 -4.16492 5.1474
RightShoulder  0.0360557 -3.24959 7.62153
RightArm  -78.6116 32.7966 -4.66667
RightForeArm  -12.6549 20.7189 3.42851
RightHand  -0.824515 5.87663 -8.79343
LeftUpLeg  3.27124 0.417838 0.983491
LeftLeg  -3.1097 14.6827 -1.19473
LeftFoot  -0.385054 0.200572 -2.053
LeftToes  4.76866e-008 1.46233e-008 1.30548e-009
22
root  -2.8396 40.937 1.03307 -166.67 -88.2206 167.186
RightUpLeg  3.18241 -1.30368 -2.13913
RightLeg  -1.11139 -17.4741 -0.266892
RightFoot  -1.07265 -0.324709 3.53147
RightToes  -3.13006e-008 1.75238e-005 3.56266e-009
Spine  -1.73858 -1.5382 3.00813
Spine1  3.86226 -0.219704 -7.18995
HEad  -14.1691 -31.5542 9.95965
LeftShoulder1  2.15885 -3.81718 -23.2276
LeftArm  -48.4791 27.6071 -59.7949
LeftForeArm  45.1854 -40.9859 -6.84809
LeftHand  -0.429045 -4.64541 5.25458
RightShoulder  0.0188535 -3.36718 8.15581
RightArm  -79.3453 32.7135 -3.41986
RightForeArm  -11.4074 24.4157 5.89156
RightHand  -0.65019 5.47233 -7.26078
LeftUpLeg  3.48865 0.511021 1.0906
LeftLeg  -2.81511 14.6113 -1.06468
LeftFoot  -0.523633 0.211645 -2.21768
LeftToes  4.76866e-008 1.46233e-008 1.30548e-009
23
root  -2.84862 40.9329 0.998371 -170.041 -87.5973 170.369
RightUpLeg  3.24704 -1.24095 -2.06704
RightLeg  -0.961376 -16.9295 -0.377724
RightFoot  -1.17125 -0.320862 3.50092
RightToes  -3.13006e-008 1.75238e-005 3.56266e-009
Spine  -1.83302 -1.5547 2.17995
Spine1  4.15387 -0.374794 -6.28121
HEad  -13.4892 -29.5948 8.63141
LeftShoulder1  2.19783 -3.9776 -23.1076
LeftArm  -48.0959 28.6236 -59.6171
LeftForeArm  45.7327 -41.2517 -6.8945
LeftHand  -0.4307 -4.73565 5.23048
RightShoulder  0.0873431 -2.95287 8.81464
RightArm  -72.2751 31.5347 -1.69741
RightForeArm  -15.5911 30.3638 7.41018
RightHand  -0.72759 5.75072 -7.84547
LeftUpLeg  3.69363 0.604228 1.15109
LeftLeg  -2.6175 15.1392 -1.04296
LeftFoot  -0.680834 0.222789 -2.38281
LeftToes  4.76866e-008 1.46233e-008 1.30548e-009
24
root  -2.86481 40.9309 0.97053 -175.562 -86.4707 175.772
RightUpLeg  3.31494 -1.03846 -1.86156
RightLeg  -1.12924 -16.0638 -0.419267
RightFoot  -1.08266 -0.307467 3.31153
RightToes  -3.13006e-008 1.75238e-005 3.56266e-009
Spine  -2.20766 -1.24959 2.36444
Spine1  4.74311 -0.009281 -6.48835
HEad  -13.1069 -27.9301 7.86828
LeftShoulder1  2.11516 -3.79134 -22.7055
LeftArm  -47.8954 28.6739 -59.5401
LeftForeArm  46.6428 -41.0494 -6.7834
LeftHand  -0.389377 -4.71024 4.77031
RightShoulder  0.193054 -2.35546 9.80008
RightArm  -64.7633 28.5559 0.911897
RightForeArm  -19.9763 40.8476 10.8518
RightHand  -0.916355 6.33807 -9.37645
LeftUpLeg  3.96587 0.777973 1.30233
LeftLeg  -2.56377 16.1034 -1.06804
LeftFoot  -0.839095 0.2224 -2.36791
LeftToes  4.76866e-008 1.46233e-008 1.30548e-009
